<?xml version="1.0" encoding="utf-8"?>
<!-- Generator: Adobe Illustrator 19.1.0, SVG Export Plug-In . SVG Version: 6.00 Build 0)  -->
<!DOCTYPE svg PUBLIC "-//W3C//DTD SVG 1.1 Basic//EN" "http://www.w3.org/Graphics/SVG/1.1/DTD/svg11-basic.dtd">
<svg version="1.1" baseProfile="basic" id="レイヤー_1"
	 xmlns="http://www.w3.org/2000/svg" xmlns:xlink="http://www.w3.org/1999/xlink" x="0px" y="0px" viewBox="0 0 393.4 100"
	 xml:space="preserve">
<style type="text/css">
	.st0{fill:#6B3939;}
	.st1{font-family:'KozMinPr6N-Bold-90ms-RKSJ-H';}
	.st2{font-size:36px;}
</style>
<g>
	<path class="st0" d="M47.2,54.5v9.3h20.2v2.3H25.1v7.5h-2.5V23.9h20.6V19h2.7v4.9h20.6v2.3H25.1v37.6h19.6v-9.3H28.6v-2.2h16.1
		V27.8h2.6v24.5h17v2.2H47.2z M25.5,47.9c4.9-5.4,8-11.9,9.2-19.6l2.5,0.3c-0.4,2.5-0.9,4.8-1.6,7c2.8,3.6,5.3,7.7,7.6,12.4l-2,1.3
		c-2.1-4.3-4.3-7.9-6.6-11c-1.7,4.1-4.1,7.8-7,11.1L25.5,47.9z M48.9,47.9c4.2-5.5,6.8-12.1,7.7-19.7l2.5,0.2
		c-0.2,2.2-0.7,4.5-1.4,6.9c3.2,3.6,6.2,7.9,8.7,12.7l-2.1,1.1C62,44.9,59.5,41.1,57,38c-1.3,4-3.4,7.8-6.1,11.3L48.9,47.9z"/>
	<path class="st0" d="M93,50.7v22.4h-2.6V52.4c-2.8,3.7-5.9,7-9.4,9.8L79.6,60c7.8-6.3,13.5-14.4,17-24.1H81.2v-2.4h16.3
		c0.6-1.8,1.2-4.2,1.9-7l2.6,0.3c-0.5,2.3-1.1,4.5-1.8,6.7h28.2V36h-29c-1.7,4.5-3.7,8.6-6.1,12.4h13.2v-8.4h2.6v8.4H126v24.8h-2.6
		V50.7h-14.2V81h-2.6V50.7H93z"/>
	<path class="st0" d="M143,68.3V24.3h44.3v44.1H143z M184.7,66.1V26.6h-39.1v39.5H184.7z M182.1,35.3v2.3h-6.6v19
		c0,2.8-0.2,4.5-0.7,5.1s-1.8,1-3.9,1s-5-0.1-8.5-0.3v-2.3c3.4,0.2,6,0.3,7.8,0.3c1.4,0,2.2-0.1,2.5-0.4c0.2-0.3,0.3-1.3,0.3-3.1
		V37.5h-24.8v-2.3H173v-6.5h2.6v6.5H182.1z M154.2,42.3l2.1-1.3c3.2,4,5.9,8.1,8.2,12.3l-2.2,1.3C160.1,50.4,157.4,46.3,154.2,42.3z
		"/>
	<text transform="matrix(1 0 0 1 219.6665 65.0608)" class="st1 st2">システム</text>
</g>
</svg>
